<mxfile host="app.diagrams.net" agent="Mozilla/5.0 (X11; Linux x86_64) AppleWebKit/537.36 (KHTML, like Gecko) Chrome/133.0.0.0 Safari/537.36" version="26.0.16" pages="3">
  <diagram name="Context Level" id="fC9GnA0mB0r2EWCVtSFk">
    <mxGraphModel dx="1760" dy="1032" grid="1" gridSize="10" guides="1" tooltips="1" connect="1" arrows="1" fold="1" page="0" pageScale="1" pageWidth="900" pageHeight="1600" math="0" shadow="0">
      <root>
        <mxCell id="0" />
        <mxCell id="1" parent="0" />
        <mxCell id="mqqFqxeNAZNyGEwjC0Mq-32" style="edgeStyle=orthogonalEdgeStyle;rounded=0;orthogonalLoop=1;jettySize=auto;html=1;exitX=1;exitY=0.75;exitDx=0;exitDy=0;entryX=0;entryY=0.75;entryDx=0;entryDy=0;strokeWidth=3;" parent="1" source="mqqFqxeNAZNyGEwjC0Mq-13" target="mqqFqxeNAZNyGEwjC0Mq-17" edge="1">
          <mxGeometry relative="1" as="geometry" />
        </mxCell>
        <mxCell id="mqqFqxeNAZNyGEwjC0Mq-36" style="edgeStyle=orthogonalEdgeStyle;rounded=0;orthogonalLoop=1;jettySize=auto;html=1;exitX=0.75;exitY=1;exitDx=0;exitDy=0;entryX=0.75;entryY=0;entryDx=0;entryDy=0;strokeWidth=3;" parent="1" source="mqqFqxeNAZNyGEwjC0Mq-13" target="mqqFqxeNAZNyGEwjC0Mq-24" edge="1">
          <mxGeometry relative="1" as="geometry" />
        </mxCell>
        <mxCell id="mqqFqxeNAZNyGEwjC0Mq-41" style="edgeStyle=orthogonalEdgeStyle;rounded=0;orthogonalLoop=1;jettySize=auto;html=1;exitX=0;exitY=0.75;exitDx=0;exitDy=0;strokeWidth=3;entryX=1;entryY=0.75;entryDx=0;entryDy=0;" parent="1" source="mqqFqxeNAZNyGEwjC0Mq-13" edge="1" target="mqqFqxeNAZNyGEwjC0Mq-19">
          <mxGeometry relative="1" as="geometry">
            <mxPoint x="190" y="369.47058823529414" as="targetPoint" />
          </mxGeometry>
        </mxCell>
        <mxCell id="yGpVhsDJsTR9-kTOj1M8-5" style="edgeStyle=orthogonalEdgeStyle;rounded=0;orthogonalLoop=1;jettySize=auto;html=1;exitX=0.75;exitY=0;exitDx=0;exitDy=0;entryX=0.75;entryY=1;entryDx=0;entryDy=0;strokeWidth=3;" parent="1" source="mqqFqxeNAZNyGEwjC0Mq-13" target="yGpVhsDJsTR9-kTOj1M8-2" edge="1">
          <mxGeometry relative="1" as="geometry" />
        </mxCell>
        <mxCell id="mqqFqxeNAZNyGEwjC0Mq-13" value="" style="rounded=1;whiteSpace=wrap;html=3;strokeColor=light-dark(#000000,#FFFFFF);strokeWidth=3;" parent="1" vertex="1">
          <mxGeometry x="490" y="287" width="190" height="110" as="geometry" />
        </mxCell>
        <mxCell id="mqqFqxeNAZNyGEwjC0Mq-14" value="" style="endArrow=none;html=1;rounded=0;entryX=1;entryY=0.25;entryDx=0;entryDy=0;exitX=0;exitY=0.25;exitDx=0;exitDy=0;strokeWidth=3;" parent="1" edge="1">
          <mxGeometry width="50" height="50" relative="1" as="geometry">
            <mxPoint x="490" y="326.5" as="sourcePoint" />
            <mxPoint x="680" y="326.5" as="targetPoint" />
          </mxGeometry>
        </mxCell>
        <mxCell id="mqqFqxeNAZNyGEwjC0Mq-15" value="&lt;font style=&quot;font-size: 18px;&quot;&gt;0.0&lt;/font&gt;" style="text;html=1;align=center;verticalAlign=middle;resizable=0;points=[];autosize=1;strokeColor=none;fillColor=none;" parent="1" vertex="1">
          <mxGeometry x="491" y="289" width="50" height="40" as="geometry" />
        </mxCell>
        <mxCell id="mqqFqxeNAZNyGEwjC0Mq-16" value="&lt;div&gt;&lt;span style=&quot;font-size: 18px;&quot;&gt;Multi-Vendor Vehicle&amp;nbsp;&lt;/span&gt;&lt;/div&gt;&lt;div&gt;&lt;span style=&quot;font-size: 18px;&quot;&gt;Rental System&lt;/span&gt;&lt;/div&gt;" style="text;html=1;align=center;verticalAlign=middle;resizable=0;points=[];autosize=1;strokeColor=none;fillColor=none;" parent="1" vertex="1">
          <mxGeometry x="489" y="333" width="190" height="60" as="geometry" />
        </mxCell>
        <mxCell id="mqqFqxeNAZNyGEwjC0Mq-39" style="edgeStyle=orthogonalEdgeStyle;rounded=0;orthogonalLoop=1;jettySize=auto;html=1;exitX=1;exitY=0.25;exitDx=0;exitDy=0;entryX=0;entryY=0.25;entryDx=0;entryDy=0;strokeWidth=3;" parent="1" source="mqqFqxeNAZNyGEwjC0Mq-19" target="mqqFqxeNAZNyGEwjC0Mq-13" edge="1">
          <mxGeometry relative="1" as="geometry" />
        </mxCell>
        <mxCell id="mqqFqxeNAZNyGEwjC0Mq-20" value="" style="group" parent="1" vertex="1" connectable="0">
          <mxGeometry x="887" y="287" width="190" height="110" as="geometry" />
        </mxCell>
        <mxCell id="mqqFqxeNAZNyGEwjC0Mq-17" value="" style="rounded=0;whiteSpace=wrap;html=3;strokeColor=light-dark(#000000,#FFFFFF);strokeWidth=3;" parent="mqqFqxeNAZNyGEwjC0Mq-20" vertex="1">
          <mxGeometry width="190" height="110" as="geometry" />
        </mxCell>
        <mxCell id="mqqFqxeNAZNyGEwjC0Mq-18" value="&lt;div&gt;&lt;span style=&quot;font-size: 18px;&quot;&gt;Vehicle Owner(s)&lt;/span&gt;&lt;/div&gt;" style="text;html=1;align=center;verticalAlign=middle;resizable=0;points=[];autosize=1;strokeColor=none;fillColor=none;" parent="mqqFqxeNAZNyGEwjC0Mq-20" vertex="1">
          <mxGeometry x="15" y="36" width="160" height="40" as="geometry" />
        </mxCell>
        <mxCell id="mqqFqxeNAZNyGEwjC0Mq-23" value="" style="group" parent="1" vertex="1" connectable="0">
          <mxGeometry x="490" y="546" width="190" height="110" as="geometry" />
        </mxCell>
        <mxCell id="mqqFqxeNAZNyGEwjC0Mq-24" value="" style="rounded=0;whiteSpace=wrap;html=3;strokeColor=light-dark(#000000,#FFFFFF);strokeWidth=3;" parent="mqqFqxeNAZNyGEwjC0Mq-23" vertex="1">
          <mxGeometry width="190" height="110" as="geometry" />
        </mxCell>
        <mxCell id="mqqFqxeNAZNyGEwjC0Mq-25" value="&lt;span style=&quot;font-size: 18px;&quot;&gt;User&lt;/span&gt;" style="text;html=1;align=center;verticalAlign=middle;resizable=0;points=[];autosize=1;strokeColor=none;fillColor=none;" parent="mqqFqxeNAZNyGEwjC0Mq-23" vertex="1">
          <mxGeometry x="65" y="36" width="60" height="40" as="geometry" />
        </mxCell>
        <mxCell id="mqqFqxeNAZNyGEwjC0Mq-29" style="edgeStyle=orthogonalEdgeStyle;rounded=0;orthogonalLoop=1;jettySize=auto;html=1;exitX=0;exitY=0.25;exitDx=0;exitDy=0;entryX=1;entryY=0.25;entryDx=0;entryDy=0;strokeWidth=3;" parent="1" source="mqqFqxeNAZNyGEwjC0Mq-17" target="mqqFqxeNAZNyGEwjC0Mq-13" edge="1">
          <mxGeometry relative="1" as="geometry" />
        </mxCell>
        <mxCell id="mqqFqxeNAZNyGEwjC0Mq-31" value="&lt;div&gt;&lt;font face=&quot;Times New Roman&quot; style=&quot;font-size: 15px;&quot;&gt;Vehicle Registration Data/&lt;/font&gt;&lt;/div&gt;&lt;div&gt;&lt;font face=&quot;Times New Roman&quot; style=&quot;font-size: 15px;&quot;&gt;&lt;span style=&quot;background-color: transparent; color: light-dark(rgb(0, 0, 0), rgb(255, 255, 255));&quot;&gt;vehicle Update Infromation&lt;/span&gt;&lt;/font&gt;&lt;/div&gt;" style="text;html=1;align=center;verticalAlign=middle;resizable=0;points=[];autosize=1;strokeColor=none;fillColor=none;strokeWidth=1;" parent="1" vertex="1">
          <mxGeometry x="691" y="260" width="190" height="50" as="geometry" />
        </mxCell>
        <mxCell id="mqqFqxeNAZNyGEwjC0Mq-33" value="&lt;font face=&quot;Times New Roman&quot;&gt;&lt;span style=&quot;font-size: 15px;&quot;&gt;Listing Confirmation/&lt;/span&gt;&lt;/font&gt;&lt;div&gt;&lt;font face=&quot;Times New Roman&quot;&gt;&lt;span style=&quot;font-size: 15px;&quot;&gt;Booking Requests&lt;/span&gt;&lt;/font&gt;&lt;/div&gt;" style="text;html=1;align=center;verticalAlign=middle;resizable=0;points=[];autosize=1;strokeColor=none;fillColor=none;strokeWidth=1;" parent="1" vertex="1">
          <mxGeometry x="706" y="368" width="150" height="50" as="geometry" />
        </mxCell>
        <mxCell id="mqqFqxeNAZNyGEwjC0Mq-34" style="edgeStyle=orthogonalEdgeStyle;rounded=0;orthogonalLoop=1;jettySize=auto;html=1;exitX=0.25;exitY=0;exitDx=0;exitDy=0;entryX=0.25;entryY=1;entryDx=0;entryDy=0;strokeWidth=3;" parent="1" source="mqqFqxeNAZNyGEwjC0Mq-24" target="mqqFqxeNAZNyGEwjC0Mq-13" edge="1">
          <mxGeometry relative="1" as="geometry" />
        </mxCell>
        <mxCell id="mqqFqxeNAZNyGEwjC0Mq-35" value="&lt;font face=&quot;Times New Roman&quot;&gt;&lt;span style=&quot;font-size: 15px;&quot;&gt;Registration &amp;amp; Booking Request Data/&lt;/span&gt;&lt;/font&gt;&lt;div&gt;&lt;font face=&quot;Times New Roman&quot;&gt;&lt;span style=&quot;font-size: 15px;&quot;&gt;Search Queries/Payment Data&lt;/span&gt;&lt;/font&gt;&lt;/div&gt;" style="text;html=1;align=center;verticalAlign=middle;resizable=0;points=[];autosize=1;strokeColor=none;fillColor=none;strokeWidth=1;" parent="1" vertex="1">
          <mxGeometry x="284" y="440" width="260" height="50" as="geometry" />
        </mxCell>
        <mxCell id="mqqFqxeNAZNyGEwjC0Mq-37" value="&lt;font face=&quot;Times New Roman&quot;&gt;&lt;span style=&quot;font-size: 15px;&quot;&gt;Registration Confirmation&lt;/span&gt;&lt;/font&gt;&lt;div&gt;&lt;font face=&quot;Times New Roman&quot;&gt;&lt;span style=&quot;font-size: 15px;&quot;&gt;Booking Confirmation/&lt;/span&gt;&lt;/font&gt;&lt;/div&gt;&lt;div&gt;&lt;font face=&quot;Times New Roman&quot;&gt;&lt;span style=&quot;font-size: 15px;&quot;&gt;Invoice/Search Results&lt;/span&gt;&lt;/font&gt;&lt;/div&gt;" style="text;html=1;align=center;verticalAlign=middle;resizable=0;points=[];autosize=1;strokeColor=none;fillColor=none;strokeWidth=1;" parent="1" vertex="1">
          <mxGeometry x="628" y="440" width="180" height="70" as="geometry" />
        </mxCell>
        <mxCell id="mqqFqxeNAZNyGEwjC0Mq-40" value="&lt;font face=&quot;Times New Roman&quot;&gt;&lt;span style=&quot;font-size: 15px;&quot;&gt;Administrative Commands/&lt;/span&gt;&lt;/font&gt;&lt;div&gt;&lt;font face=&quot;Times New Roman&quot;&gt;&lt;span style=&quot;font-size: 15px;&quot;&gt;Approval Data&lt;/span&gt;&lt;/font&gt;&lt;/div&gt;" style="text;html=1;align=center;verticalAlign=middle;resizable=0;points=[];autosize=1;strokeColor=none;fillColor=none;strokeWidth=1;" parent="1" vertex="1">
          <mxGeometry x="282" y="267" width="190" height="50" as="geometry" />
        </mxCell>
        <mxCell id="mqqFqxeNAZNyGEwjC0Mq-42" value="&lt;div&gt;&lt;font face=&quot;Times New Roman&quot;&gt;&lt;span style=&quot;font-size: 15px;&quot;&gt;System Reports/&lt;/span&gt;&lt;/font&gt;&lt;/div&gt;&lt;div&gt;&lt;span style=&quot;font-size: 15px; font-family: &amp;quot;Times New Roman&amp;quot;; background-color: transparent; color: light-dark(rgb(0, 0, 0), rgb(255, 255, 255));&quot;&gt;Status Information&lt;/span&gt;&lt;/div&gt;" style="text;html=1;align=center;verticalAlign=middle;resizable=0;points=[];autosize=1;strokeColor=none;fillColor=none;strokeWidth=1;" parent="1" vertex="1">
          <mxGeometry x="312" y="363" width="140" height="50" as="geometry" />
        </mxCell>
        <mxCell id="yGpVhsDJsTR9-kTOj1M8-1" value="" style="group;strokeWidth=3;" parent="1" vertex="1" connectable="0">
          <mxGeometry x="490" y="32" width="190" height="110" as="geometry" />
        </mxCell>
        <mxCell id="yGpVhsDJsTR9-kTOj1M8-2" value="" style="rounded=0;whiteSpace=wrap;html=3;strokeColor=light-dark(#000000,#FFFFFF);strokeWidth=3;" parent="yGpVhsDJsTR9-kTOj1M8-1" vertex="1">
          <mxGeometry width="190" height="110" as="geometry" />
        </mxCell>
        <mxCell id="yGpVhsDJsTR9-kTOj1M8-3" value="&lt;span style=&quot;font-size: 18px;&quot;&gt;Khalti Payment&amp;nbsp;&lt;/span&gt;&lt;div&gt;&lt;span style=&quot;font-size: 18px;&quot;&gt;Gateway&lt;/span&gt;&lt;/div&gt;" style="text;html=1;align=center;verticalAlign=middle;resizable=0;points=[];autosize=1;strokeColor=none;fillColor=none;" parent="yGpVhsDJsTR9-kTOj1M8-1" vertex="1">
          <mxGeometry x="20" y="26" width="150" height="60" as="geometry" />
        </mxCell>
        <mxCell id="yGpVhsDJsTR9-kTOj1M8-4" style="edgeStyle=orthogonalEdgeStyle;rounded=0;orthogonalLoop=1;jettySize=auto;html=1;exitX=0.25;exitY=1;exitDx=0;exitDy=0;entryX=0.94;entryY=-0.058;entryDx=0;entryDy=0;entryPerimeter=0;strokeWidth=3;" parent="1" source="yGpVhsDJsTR9-kTOj1M8-2" target="mqqFqxeNAZNyGEwjC0Mq-15" edge="1">
          <mxGeometry relative="1" as="geometry">
            <mxPoint x="540" y="280" as="targetPoint" />
          </mxGeometry>
        </mxCell>
        <mxCell id="yGpVhsDJsTR9-kTOj1M8-7" value="&lt;font face=&quot;Times New Roman&quot;&gt;&lt;span style=&quot;font-size: 15px;&quot;&gt;Payment Request Data&lt;/span&gt;&lt;/font&gt;" style="text;html=1;align=center;verticalAlign=middle;resizable=0;points=[];autosize=1;strokeColor=none;fillColor=none;strokeWidth=1;" parent="1" vertex="1">
          <mxGeometry x="628" y="178" width="160" height="30" as="geometry" />
        </mxCell>
        <mxCell id="yGpVhsDJsTR9-kTOj1M8-8" value="&lt;div&gt;&lt;font face=&quot;Times New Roman&quot;&gt;&lt;span style=&quot;font-size: 15px;&quot;&gt;Payment Confirmation Data&lt;/span&gt;&lt;/font&gt;&lt;/div&gt;" style="text;html=1;align=center;verticalAlign=middle;resizable=0;points=[];autosize=1;strokeColor=none;fillColor=none;strokeWidth=1;" parent="1" vertex="1">
          <mxGeometry x="351" y="180" width="190" height="30" as="geometry" />
        </mxCell>
        <mxCell id="7RJQ4S-2vuQZQh6r3rXF-1" value="" style="group" vertex="1" connectable="0" parent="1">
          <mxGeometry x="94" y="287" width="190" height="110" as="geometry" />
        </mxCell>
        <mxCell id="mqqFqxeNAZNyGEwjC0Mq-19" value="" style="rounded=0;whiteSpace=wrap;html=3;strokeColor=light-dark(#000000,#FFFFFF);strokeWidth=3;" parent="7RJQ4S-2vuQZQh6r3rXF-1" vertex="1">
          <mxGeometry width="190" height="110" as="geometry" />
        </mxCell>
        <mxCell id="mqqFqxeNAZNyGEwjC0Mq-26" value="&lt;div&gt;&lt;span style=&quot;font-size: 18px;&quot;&gt;Admin&lt;/span&gt;&lt;/div&gt;" style="text;html=1;align=center;verticalAlign=middle;resizable=0;points=[];autosize=1;strokeColor=none;fillColor=none;" parent="7RJQ4S-2vuQZQh6r3rXF-1" vertex="1">
          <mxGeometry x="56" y="34" width="70" height="40" as="geometry" />
        </mxCell>
      </root>
    </mxGraphModel>
  </diagram>
  <diagram name="Level 0" id="IUuk-VQfXcXVTtdF40Mc">
    <mxGraphModel dx="880" dy="1316" grid="1" gridSize="10" guides="1" tooltips="1" connect="1" arrows="1" fold="1" page="0" pageScale="1" pageWidth="900" pageHeight="1600" math="0" shadow="0">
      <root>
        <mxCell id="0" />
        <mxCell id="1" parent="0" />
        <mxCell id="CzCq_uoydx_rgcWmHXnd-1" value="" style="group" parent="1" vertex="1" connectable="0">
          <mxGeometry x="1005" y="479" width="190" height="110" as="geometry" />
        </mxCell>
        <mxCell id="CzCq_uoydx_rgcWmHXnd-2" value="" style="rounded=1;whiteSpace=wrap;html=3;strokeColor=light-dark(#000000,#FFFFFF);strokeWidth=3;" parent="CzCq_uoydx_rgcWmHXnd-1" vertex="1">
          <mxGeometry width="190" height="110" as="geometry" />
        </mxCell>
        <mxCell id="CzCq_uoydx_rgcWmHXnd-3" value="" style="endArrow=none;html=1;rounded=0;entryX=1;entryY=0.25;entryDx=0;entryDy=0;exitX=0;exitY=0.25;exitDx=0;exitDy=0;strokeWidth=3;" parent="CzCq_uoydx_rgcWmHXnd-1" edge="1">
          <mxGeometry width="50" height="50" relative="1" as="geometry">
            <mxPoint y="39.5" as="sourcePoint" />
            <mxPoint x="190" y="39.5" as="targetPoint" />
          </mxGeometry>
        </mxCell>
        <mxCell id="CzCq_uoydx_rgcWmHXnd-4" value="&lt;font style=&quot;font-size: 18px;&quot;&gt;1.1&lt;/font&gt;" style="text;html=1;align=center;verticalAlign=middle;resizable=0;points=[];autosize=1;strokeColor=none;fillColor=none;" parent="CzCq_uoydx_rgcWmHXnd-1" vertex="1">
          <mxGeometry x="1" y="2" width="50" height="40" as="geometry" />
        </mxCell>
        <mxCell id="CzCq_uoydx_rgcWmHXnd-5" value="&lt;font style=&quot;font-size: 18px;&quot;&gt;Manage Users&lt;/font&gt;" style="text;html=1;align=center;verticalAlign=middle;resizable=0;points=[];autosize=1;strokeColor=none;fillColor=none;" parent="CzCq_uoydx_rgcWmHXnd-1" vertex="1">
          <mxGeometry x="13" y="50" width="140" height="40" as="geometry" />
        </mxCell>
        <mxCell id="S0NYgSveu-UEB4fADILz-1" value="" style="group" parent="1" vertex="1" connectable="0">
          <mxGeometry x="960" y="63" width="190" height="110" as="geometry" />
        </mxCell>
        <mxCell id="S0NYgSveu-UEB4fADILz-2" value="" style="rounded=1;whiteSpace=wrap;html=3;strokeColor=light-dark(#000000,#FFFFFF);strokeWidth=3;" parent="S0NYgSveu-UEB4fADILz-1" vertex="1">
          <mxGeometry width="190" height="110" as="geometry" />
        </mxCell>
        <mxCell id="S0NYgSveu-UEB4fADILz-3" value="" style="endArrow=none;html=1;rounded=0;entryX=1;entryY=0.25;entryDx=0;entryDy=0;exitX=0;exitY=0.25;exitDx=0;exitDy=0;strokeWidth=3;" parent="S0NYgSveu-UEB4fADILz-1" edge="1">
          <mxGeometry width="50" height="50" relative="1" as="geometry">
            <mxPoint y="39.5" as="sourcePoint" />
            <mxPoint x="190" y="39.5" as="targetPoint" />
          </mxGeometry>
        </mxCell>
        <mxCell id="S0NYgSveu-UEB4fADILz-4" value="&lt;font style=&quot;font-size: 18px;&quot;&gt;1.2&lt;/font&gt;" style="text;html=1;align=center;verticalAlign=middle;resizable=0;points=[];autosize=1;strokeColor=none;fillColor=none;" parent="S0NYgSveu-UEB4fADILz-1" vertex="1">
          <mxGeometry x="1" y="2" width="50" height="40" as="geometry" />
        </mxCell>
        <mxCell id="S0NYgSveu-UEB4fADILz-5" value="&lt;font style=&quot;font-size: 18px;&quot;&gt;Manage Vehicles&lt;/font&gt;" style="text;html=1;align=center;verticalAlign=middle;resizable=0;points=[];autosize=1;strokeColor=none;fillColor=none;" parent="S0NYgSveu-UEB4fADILz-1" vertex="1">
          <mxGeometry x="9" y="50" width="160" height="40" as="geometry" />
        </mxCell>
        <mxCell id="S0NYgSveu-UEB4fADILz-6" value="" style="group" parent="1" vertex="1" connectable="0">
          <mxGeometry x="249" y="483" width="190" height="110" as="geometry" />
        </mxCell>
        <mxCell id="S0NYgSveu-UEB4fADILz-7" value="" style="rounded=1;whiteSpace=wrap;html=3;strokeColor=light-dark(#000000,#FFFFFF);strokeWidth=3;" parent="S0NYgSveu-UEB4fADILz-6" vertex="1">
          <mxGeometry width="190" height="110" as="geometry" />
        </mxCell>
        <mxCell id="S0NYgSveu-UEB4fADILz-8" value="" style="endArrow=none;html=1;rounded=0;entryX=1;entryY=0.25;entryDx=0;entryDy=0;exitX=0;exitY=0.25;exitDx=0;exitDy=0;strokeWidth=3;" parent="S0NYgSveu-UEB4fADILz-6" edge="1">
          <mxGeometry width="50" height="50" relative="1" as="geometry">
            <mxPoint y="39.5" as="sourcePoint" />
            <mxPoint x="190" y="39.5" as="targetPoint" />
          </mxGeometry>
        </mxCell>
        <mxCell id="S0NYgSveu-UEB4fADILz-9" value="&lt;font style=&quot;font-size: 18px;&quot;&gt;1.3&lt;/font&gt;" style="text;html=1;align=center;verticalAlign=middle;resizable=0;points=[];autosize=1;strokeColor=none;fillColor=none;" parent="S0NYgSveu-UEB4fADILz-6" vertex="1">
          <mxGeometry x="-4" y="2" width="50" height="40" as="geometry" />
        </mxCell>
        <mxCell id="S0NYgSveu-UEB4fADILz-10" value="&lt;font style=&quot;font-size: 18px;&quot;&gt;Manage Bookings&lt;/font&gt;" style="text;html=1;align=center;verticalAlign=middle;resizable=0;points=[];autosize=1;strokeColor=none;fillColor=none;" parent="S0NYgSveu-UEB4fADILz-6" vertex="1">
          <mxGeometry x="8" y="50" width="170" height="40" as="geometry" />
        </mxCell>
        <mxCell id="S0NYgSveu-UEB4fADILz-11" value="" style="group" parent="1" vertex="1" connectable="0">
          <mxGeometry x="344" y="84" width="190" height="110" as="geometry" />
        </mxCell>
        <mxCell id="S0NYgSveu-UEB4fADILz-12" value="" style="rounded=1;whiteSpace=wrap;html=3;strokeColor=light-dark(#000000,#FFFFFF);strokeWidth=3;" parent="S0NYgSveu-UEB4fADILz-11" vertex="1">
          <mxGeometry x="-2" width="190" height="110" as="geometry" />
        </mxCell>
        <mxCell id="S0NYgSveu-UEB4fADILz-13" value="" style="endArrow=none;html=1;rounded=0;entryX=1;entryY=0.25;entryDx=0;entryDy=0;exitX=0;exitY=0.25;exitDx=0;exitDy=0;strokeWidth=3;" parent="S0NYgSveu-UEB4fADILz-11" edge="1">
          <mxGeometry width="50" height="50" relative="1" as="geometry">
            <mxPoint y="39.5" as="sourcePoint" />
            <mxPoint x="190" y="39.5" as="targetPoint" />
          </mxGeometry>
        </mxCell>
        <mxCell id="S0NYgSveu-UEB4fADILz-14" value="&lt;font style=&quot;font-size: 18px;&quot;&gt;1.4&lt;/font&gt;" style="text;html=1;align=center;verticalAlign=middle;resizable=0;points=[];autosize=1;strokeColor=none;fillColor=none;" parent="S0NYgSveu-UEB4fADILz-11" vertex="1">
          <mxGeometry x="-2" width="50" height="40" as="geometry" />
        </mxCell>
        <mxCell id="S0NYgSveu-UEB4fADILz-15" value="&lt;font style=&quot;font-size: 18px;&quot;&gt;Process Payments&lt;/font&gt;" style="text;html=1;align=center;verticalAlign=middle;resizable=0;points=[];autosize=1;strokeColor=none;fillColor=none;" parent="S0NYgSveu-UEB4fADILz-11" vertex="1">
          <mxGeometry x="6" y="50" width="170" height="40" as="geometry" />
        </mxCell>
        <mxCell id="S0NYgSveu-UEB4fADILz-20" value="" style="group" parent="1" vertex="1" connectable="0">
          <mxGeometry x="990" y="730" width="270" height="110" as="geometry" />
        </mxCell>
        <mxCell id="S0NYgSveu-UEB4fADILz-16" value="" style="html=1;dashed=0;whiteSpace=wrap;shape=partialRectangle;right=0;strokeWidth=3;" parent="S0NYgSveu-UEB4fADILz-20" vertex="1">
          <mxGeometry width="190" height="50" as="geometry" />
        </mxCell>
        <mxCell id="S0NYgSveu-UEB4fADILz-18" value="&lt;font style=&quot;font-size: 18px;&quot;&gt;D1 – User Data&lt;/font&gt;" style="text;html=1;align=center;verticalAlign=middle;resizable=0;points=[];autosize=1;strokeColor=none;fillColor=none;container=1;" parent="S0NYgSveu-UEB4fADILz-20" vertex="1">
          <mxGeometry x="10" y="5" width="150" height="40" as="geometry" />
        </mxCell>
        <mxCell id="S0NYgSveu-UEB4fADILz-21" value="" style="group" parent="1" vertex="1" connectable="0">
          <mxGeometry x="960" y="293" width="190" height="50" as="geometry" />
        </mxCell>
        <mxCell id="S0NYgSveu-UEB4fADILz-22" value="" style="html=1;dashed=0;whiteSpace=wrap;shape=partialRectangle;right=0;strokeWidth=3;" parent="S0NYgSveu-UEB4fADILz-21" vertex="1">
          <mxGeometry width="190" height="50" as="geometry" />
        </mxCell>
        <mxCell id="S0NYgSveu-UEB4fADILz-23" value="&lt;font style=&quot;font-size: 18px;&quot;&gt;D2 – Vehicle Data&lt;/font&gt;" style="text;html=1;align=center;verticalAlign=middle;resizable=0;points=[];autosize=1;strokeColor=none;fillColor=none;container=1;" parent="S0NYgSveu-UEB4fADILz-21" vertex="1">
          <mxGeometry y="5" width="170" height="40" as="geometry" />
        </mxCell>
        <mxCell id="S0NYgSveu-UEB4fADILz-24" value="" style="group;strokeWidth=3;" parent="1" vertex="1" connectable="0">
          <mxGeometry x="249" y="697" width="190" height="50" as="geometry" />
        </mxCell>
        <mxCell id="S0NYgSveu-UEB4fADILz-25" value="" style="html=1;dashed=0;whiteSpace=wrap;shape=partialRectangle;right=0;strokeWidth=3;" parent="S0NYgSveu-UEB4fADILz-24" vertex="1">
          <mxGeometry width="190" height="50" as="geometry" />
        </mxCell>
        <mxCell id="S0NYgSveu-UEB4fADILz-26" value="&lt;font style=&quot;font-size: 18px;&quot;&gt;D3 – Booking Data&lt;/font&gt;" style="text;html=1;align=center;verticalAlign=middle;resizable=0;points=[];autosize=1;strokeColor=none;fillColor=none;container=1;" parent="S0NYgSveu-UEB4fADILz-24" vertex="1">
          <mxGeometry y="5" width="170" height="40" as="geometry" />
        </mxCell>
        <mxCell id="S0NYgSveu-UEB4fADILz-27" value="" style="group" parent="1" vertex="1" connectable="0">
          <mxGeometry x="352" y="293" width="190" height="50" as="geometry" />
        </mxCell>
        <mxCell id="S0NYgSveu-UEB4fADILz-28" value="" style="html=1;dashed=0;whiteSpace=wrap;shape=partialRectangle;right=0;strokeWidth=3;" parent="S0NYgSveu-UEB4fADILz-27" vertex="1">
          <mxGeometry width="190" height="50" as="geometry" />
        </mxCell>
        <mxCell id="S0NYgSveu-UEB4fADILz-29" value="&lt;font style=&quot;font-size: 18px;&quot;&gt;D4 – Payment Records&lt;/font&gt;" style="text;html=1;align=center;verticalAlign=middle;resizable=0;points=[];autosize=1;strokeColor=none;fillColor=none;container=1;" parent="S0NYgSveu-UEB4fADILz-27" vertex="1">
          <mxGeometry x="-7" y="5" width="210" height="40" as="geometry" />
        </mxCell>
        <mxCell id="tX5nesSdGELkdMT0WbA1-5" value="" style="group" parent="1" vertex="1" connectable="0">
          <mxGeometry x="630" y="490" width="190" height="110" as="geometry" />
        </mxCell>
        <mxCell id="tX5nesSdGELkdMT0WbA1-6" value="" style="rounded=0;whiteSpace=wrap;html=3;strokeColor=light-dark(#000000,#FFFFFF);strokeWidth=3;" parent="tX5nesSdGELkdMT0WbA1-5" vertex="1">
          <mxGeometry width="190" height="110" as="geometry" />
        </mxCell>
        <mxCell id="tX5nesSdGELkdMT0WbA1-7" value="&lt;span style=&quot;font-size: 18px;&quot;&gt;User&lt;/span&gt;" style="text;html=1;align=center;verticalAlign=middle;resizable=0;points=[];autosize=1;strokeColor=none;fillColor=none;" parent="tX5nesSdGELkdMT0WbA1-5" vertex="1">
          <mxGeometry x="65" y="36" width="60" height="40" as="geometry" />
        </mxCell>
        <mxCell id="tX5nesSdGELkdMT0WbA1-9" value="" style="group;strokeWidth=3;" parent="1" vertex="1" connectable="0">
          <mxGeometry x="353" y="-122" width="190" height="110" as="geometry" />
        </mxCell>
        <mxCell id="tX5nesSdGELkdMT0WbA1-10" value="" style="rounded=0;whiteSpace=wrap;html=3;strokeColor=light-dark(#000000,#FFFFFF);strokeWidth=3;" parent="tX5nesSdGELkdMT0WbA1-9" vertex="1">
          <mxGeometry width="190" height="110" as="geometry" />
        </mxCell>
        <mxCell id="tX5nesSdGELkdMT0WbA1-11" value="&lt;span style=&quot;font-size: 18px;&quot;&gt;Khalti Payment&amp;nbsp;&lt;/span&gt;&lt;div&gt;&lt;span style=&quot;font-size: 18px;&quot;&gt;Gateway&lt;/span&gt;&lt;/div&gt;" style="text;html=1;align=center;verticalAlign=middle;resizable=0;points=[];autosize=1;strokeColor=none;fillColor=none;" parent="tX5nesSdGELkdMT0WbA1-9" vertex="1">
          <mxGeometry x="20" y="26" width="150" height="60" as="geometry" />
        </mxCell>
        <mxCell id="tX5nesSdGELkdMT0WbA1-2" value="" style="group" parent="1" vertex="1" connectable="0">
          <mxGeometry x="940" y="-170" width="190" height="110" as="geometry" />
        </mxCell>
        <mxCell id="tX5nesSdGELkdMT0WbA1-3" value="" style="rounded=0;whiteSpace=wrap;html=3;strokeColor=light-dark(#000000,#FFFFFF);strokeWidth=3;" parent="tX5nesSdGELkdMT0WbA1-2" vertex="1">
          <mxGeometry width="190" height="110" as="geometry" />
        </mxCell>
        <mxCell id="tX5nesSdGELkdMT0WbA1-4" value="&lt;div&gt;&lt;span style=&quot;font-size: 18px;&quot;&gt;Vehicle Owner(s)&lt;/span&gt;&lt;/div&gt;" style="text;html=1;align=center;verticalAlign=middle;resizable=0;points=[];autosize=1;strokeColor=none;fillColor=none;" parent="tX5nesSdGELkdMT0WbA1-2" vertex="1">
          <mxGeometry x="15" y="36" width="160" height="40" as="geometry" />
        </mxCell>
        <mxCell id="tX5nesSdGELkdMT0WbA1-12" value="" style="group" parent="1" vertex="1" connectable="0">
          <mxGeometry x="673" y="-307" width="190" height="110" as="geometry" />
        </mxCell>
        <mxCell id="tX5nesSdGELkdMT0WbA1-1" value="" style="rounded=0;whiteSpace=wrap;html=3;strokeColor=light-dark(#000000,#FFFFFF);strokeWidth=3;" parent="tX5nesSdGELkdMT0WbA1-12" vertex="1">
          <mxGeometry width="190" height="110" as="geometry" />
        </mxCell>
        <mxCell id="tX5nesSdGELkdMT0WbA1-8" value="&lt;div&gt;&lt;span style=&quot;font-size: 18px;&quot;&gt;Admin&lt;/span&gt;&lt;/div&gt;" style="text;html=1;align=center;verticalAlign=middle;resizable=0;points=[];autosize=1;strokeColor=none;fillColor=none;" parent="tX5nesSdGELkdMT0WbA1-12" vertex="1">
          <mxGeometry x="52" y="34" width="70" height="40" as="geometry" />
        </mxCell>
        <mxCell id="tX5nesSdGELkdMT0WbA1-13" style="edgeStyle=orthogonalEdgeStyle;rounded=0;orthogonalLoop=1;jettySize=auto;html=1;exitX=1;exitY=0.25;exitDx=0;exitDy=0;entryX=-0.1;entryY=0.9;entryDx=0;entryDy=0;entryPerimeter=0;strokeWidth=3;" parent="1" source="tX5nesSdGELkdMT0WbA1-6" target="CzCq_uoydx_rgcWmHXnd-4" edge="1">
          <mxGeometry relative="1" as="geometry" />
        </mxCell>
        <mxCell id="JS9Qqwndmr8Ry-a1bTts-1" value="&lt;div&gt;&lt;font face=&quot;Times New Roman&quot; style=&quot;font-size: 15px;&quot;&gt;User Registration Data/&lt;/font&gt;&lt;/div&gt;&lt;div&gt;&lt;font face=&quot;Times New Roman&quot; style=&quot;font-size: 15px;&quot;&gt;&lt;span style=&quot;background-color: transparent; color: light-dark(rgb(0, 0, 0), rgb(255, 255, 255));&quot;&gt;Login Data&lt;/span&gt;&lt;/font&gt;&lt;/div&gt;" style="text;html=1;align=center;verticalAlign=middle;resizable=0;points=[];autosize=1;strokeColor=none;fillColor=none;strokeWidth=1;" parent="1" vertex="1">
          <mxGeometry x="822" y="469" width="170" height="50" as="geometry" />
        </mxCell>
        <mxCell id="JS9Qqwndmr8Ry-a1bTts-2" style="edgeStyle=orthogonalEdgeStyle;rounded=0;orthogonalLoop=1;jettySize=auto;html=1;exitX=0.25;exitY=1;exitDx=0;exitDy=0;entryX=0.352;entryY=-0.08;entryDx=0;entryDy=0;entryPerimeter=0;strokeWidth=3;" parent="1" source="CzCq_uoydx_rgcWmHXnd-2" target="S0NYgSveu-UEB4fADILz-18" edge="1">
          <mxGeometry relative="1" as="geometry" />
        </mxCell>
        <mxCell id="JS9Qqwndmr8Ry-a1bTts-3" value="&lt;font face=&quot;Times New Roman&quot;&gt;&lt;span style=&quot;font-size: 15px;&quot;&gt;User Profile Data/&lt;/span&gt;&lt;/font&gt;&lt;div&gt;&lt;font face=&quot;Times New Roman&quot;&gt;&lt;span style=&quot;font-size: 15px;&quot;&gt;Updated User info&lt;/span&gt;&lt;/font&gt;&lt;/div&gt;" style="text;html=1;align=center;verticalAlign=middle;resizable=0;points=[];autosize=1;strokeColor=none;fillColor=none;strokeWidth=1;" parent="1" vertex="1">
          <mxGeometry x="925" y="659" width="130" height="50" as="geometry" />
        </mxCell>
        <mxCell id="JS9Qqwndmr8Ry-a1bTts-4" style="edgeStyle=orthogonalEdgeStyle;rounded=0;orthogonalLoop=1;jettySize=auto;html=1;exitX=0.75;exitY=0;exitDx=0;exitDy=0;entryX=0.673;entryY=1.025;entryDx=0;entryDy=0;entryPerimeter=0;strokeWidth=3;" parent="1" source="S0NYgSveu-UEB4fADILz-16" target="CzCq_uoydx_rgcWmHXnd-2" edge="1">
          <mxGeometry relative="1" as="geometry" />
        </mxCell>
        <mxCell id="JS9Qqwndmr8Ry-a1bTts-5" value="&lt;font face=&quot;Times New Roman&quot;&gt;&lt;span style=&quot;font-size: 15px;&quot;&gt;User Registration&lt;/span&gt;&lt;/font&gt;&lt;div&gt;&lt;font face=&quot;Times New Roman&quot;&gt;&lt;span style=&quot;font-size: 15px;&quot;&gt;Data&lt;/span&gt;&lt;/font&gt;&lt;/div&gt;" style="text;html=1;align=center;verticalAlign=middle;resizable=0;points=[];autosize=1;strokeColor=none;fillColor=none;strokeWidth=1;" parent="1" vertex="1">
          <mxGeometry x="1126" y="654" width="130" height="50" as="geometry" />
        </mxCell>
        <mxCell id="wSjBENbRnAiZIrcmz-zM-1" style="edgeStyle=orthogonalEdgeStyle;rounded=0;orthogonalLoop=1;jettySize=auto;html=1;exitX=0.25;exitY=1;exitDx=0;exitDy=0;entryX=0.143;entryY=-0.005;entryDx=0;entryDy=0;entryPerimeter=0;strokeWidth=3;" parent="1" edge="1">
          <mxGeometry relative="1" as="geometry">
            <mxPoint x="1023.5" y="-60" as="sourcePoint" />
            <mxPoint x="1023.1700000000001" y="62.450000000000045" as="targetPoint" />
          </mxGeometry>
        </mxCell>
        <mxCell id="wSjBENbRnAiZIrcmz-zM-2" value="&lt;div&gt;&lt;font face=&quot;Times New Roman&quot; style=&quot;font-size: 15px;&quot;&gt;Vehicle Registration Data/&lt;/font&gt;&lt;/div&gt;&lt;div&gt;&lt;font face=&quot;Times New Roman&quot;&gt;&lt;span style=&quot;font-size: 15px;&quot;&gt;Availability slot data / Documents&lt;/span&gt;&lt;/font&gt;&lt;/div&gt;" style="text;html=1;align=center;verticalAlign=middle;resizable=0;points=[];autosize=1;strokeColor=none;fillColor=none;strokeWidth=1;" parent="1" vertex="1">
          <mxGeometry x="799" y="-17" width="230" height="50" as="geometry" />
        </mxCell>
        <mxCell id="wSjBENbRnAiZIrcmz-zM-3" style="edgeStyle=orthogonalEdgeStyle;rounded=0;orthogonalLoop=1;jettySize=auto;html=1;exitX=0.25;exitY=1;exitDx=0;exitDy=0;entryX=0.25;entryY=0;entryDx=0;entryDy=0;strokeWidth=3;" parent="1" edge="1">
          <mxGeometry relative="1" as="geometry">
            <mxPoint x="1030.5" y="293" as="targetPoint" />
            <mxPoint x="1030.5" y="173" as="sourcePoint" />
          </mxGeometry>
        </mxCell>
        <mxCell id="wSjBENbRnAiZIrcmz-zM-4" value="&lt;font face=&quot;Times New Roman&quot;&gt;&lt;span style=&quot;font-size: 15px;&quot;&gt;New/Updated Vehicle,&amp;nbsp;&lt;/span&gt;&lt;/font&gt;&lt;div&gt;&lt;font face=&quot;Times New Roman&quot;&gt;&lt;span style=&quot;font-size: 15px;&quot;&gt;Documents, Availability&lt;/span&gt;&lt;/font&gt;&lt;/div&gt;" style="text;html=1;align=center;verticalAlign=middle;resizable=0;points=[];autosize=1;strokeColor=none;fillColor=none;strokeWidth=1;" parent="1" vertex="1">
          <mxGeometry x="866" y="203" width="170" height="50" as="geometry" />
        </mxCell>
        <mxCell id="wSjBENbRnAiZIrcmz-zM-5" style="edgeStyle=orthogonalEdgeStyle;rounded=0;orthogonalLoop=1;jettySize=auto;html=1;exitX=0;exitY=0.25;exitDx=0;exitDy=0;entryX=1;entryY=0.315;entryDx=0;entryDy=0;entryPerimeter=0;strokeWidth=3;" parent="1" source="tX5nesSdGELkdMT0WbA1-6" target="S0NYgSveu-UEB4fADILz-7" edge="1">
          <mxGeometry relative="1" as="geometry" />
        </mxCell>
        <mxCell id="wSjBENbRnAiZIrcmz-zM-6" value="&lt;font face=&quot;Times New Roman&quot;&gt;&lt;span style=&quot;font-size: 15px;&quot;&gt;Booking Request Data&lt;/span&gt;&lt;/font&gt;&lt;div&gt;&lt;font face=&quot;Times New Roman&quot;&gt;&lt;span style=&quot;font-size: 15px;&quot;&gt;Desired Time Slot&lt;/span&gt;&lt;/font&gt;&lt;/div&gt;" style="text;html=1;align=center;verticalAlign=middle;resizable=0;points=[];autosize=1;strokeColor=none;fillColor=none;strokeWidth=1;" parent="1" vertex="1">
          <mxGeometry x="450" y="471" width="160" height="50" as="geometry" />
        </mxCell>
        <mxCell id="wSjBENbRnAiZIrcmz-zM-7" style="edgeStyle=orthogonalEdgeStyle;rounded=0;orthogonalLoop=1;jettySize=auto;html=1;exitX=0.25;exitY=1;exitDx=0;exitDy=0;strokeWidth=3;entryX=0.32;entryY=0.038;entryDx=0;entryDy=0;entryPerimeter=0;" parent="1" edge="1">
          <mxGeometry relative="1" as="geometry">
            <mxPoint x="328.4999999999998" y="593" as="sourcePoint" />
            <mxPoint x="307.79999999999995" y="698.8999999999999" as="targetPoint" />
          </mxGeometry>
        </mxCell>
        <mxCell id="wSjBENbRnAiZIrcmz-zM-8" value="&lt;font face=&quot;Times New Roman&quot;&gt;&lt;span style=&quot;font-size: 15px;&quot;&gt;Booking Record&lt;/span&gt;&lt;/font&gt;" style="text;html=1;align=center;verticalAlign=middle;resizable=0;points=[];autosize=1;strokeColor=none;fillColor=none;strokeWidth=1;" parent="1" vertex="1">
          <mxGeometry x="192" y="634" width="120" height="30" as="geometry" />
        </mxCell>
        <mxCell id="wSjBENbRnAiZIrcmz-zM-9" style="edgeStyle=orthogonalEdgeStyle;rounded=0;orthogonalLoop=1;jettySize=auto;html=1;exitX=1;exitY=0.75;exitDx=0;exitDy=0;entryX=-0.006;entryY=0.685;entryDx=0;entryDy=0;entryPerimeter=0;strokeWidth=3;" parent="1" source="S0NYgSveu-UEB4fADILz-7" target="tX5nesSdGELkdMT0WbA1-6" edge="1">
          <mxGeometry relative="1" as="geometry" />
        </mxCell>
        <mxCell id="wSjBENbRnAiZIrcmz-zM-10" value="&lt;font face=&quot;Times New Roman&quot;&gt;&lt;span style=&quot;font-size: 15px;&quot;&gt;Booking Confirmation/&lt;/span&gt;&lt;/font&gt;&lt;div&gt;&lt;font face=&quot;Times New Roman&quot;&gt;&lt;span style=&quot;font-size: 15px;&quot;&gt;Invoice&lt;/span&gt;&lt;/font&gt;&lt;/div&gt;" style="text;html=1;align=center;verticalAlign=middle;resizable=0;points=[];autosize=1;strokeColor=none;fillColor=none;strokeWidth=1;" parent="1" vertex="1">
          <mxGeometry x="452" y="562" width="160" height="50" as="geometry" />
        </mxCell>
        <mxCell id="wSjBENbRnAiZIrcmz-zM-11" style="edgeStyle=orthogonalEdgeStyle;rounded=0;orthogonalLoop=1;jettySize=auto;html=1;entryX=0.75;entryY=1;entryDx=0;entryDy=0;strokeWidth=3;" parent="1" edge="1">
          <mxGeometry relative="1" as="geometry">
            <mxPoint x="365" y="690" as="sourcePoint" />
            <mxPoint x="365.4999999999998" y="593" as="targetPoint" />
          </mxGeometry>
        </mxCell>
        <mxCell id="wSjBENbRnAiZIrcmz-zM-12" value="&lt;font face=&quot;Times New Roman&quot;&gt;&lt;span style=&quot;font-size: 15px;&quot;&gt;Booking Data&lt;/span&gt;&lt;/font&gt;" style="text;html=1;align=center;verticalAlign=middle;resizable=0;points=[];autosize=1;strokeColor=none;fillColor=none;strokeWidth=1;" parent="1" vertex="1">
          <mxGeometry x="359" y="643" width="110" height="30" as="geometry" />
        </mxCell>
        <mxCell id="wSjBENbRnAiZIrcmz-zM-13" style="edgeStyle=orthogonalEdgeStyle;rounded=0;orthogonalLoop=1;jettySize=auto;html=1;exitX=0.25;exitY=0;exitDx=0;exitDy=0;entryX=0.192;entryY=0.998;entryDx=0;entryDy=0;entryPerimeter=0;strokeWidth=3;" parent="1" edge="1">
          <mxGeometry relative="1" as="geometry">
            <mxPoint x="408.5" y="84" as="sourcePoint" />
            <mxPoint x="408.48" y="-12.220000000000027" as="targetPoint" />
          </mxGeometry>
        </mxCell>
        <mxCell id="wSjBENbRnAiZIrcmz-zM-14" value="&lt;font face=&quot;Times New Roman&quot;&gt;&lt;span style=&quot;font-size: 15px;&quot;&gt;Payment Request&amp;nbsp;&lt;/span&gt;&lt;/font&gt;&lt;div&gt;&lt;font face=&quot;Times New Roman&quot;&gt;&lt;span style=&quot;font-size: 15px;&quot;&gt;Data&lt;/span&gt;&lt;/font&gt;&lt;/div&gt;" style="text;html=1;align=center;verticalAlign=middle;resizable=0;points=[];autosize=1;strokeColor=none;fillColor=none;strokeWidth=1;" parent="1" vertex="1">
          <mxGeometry x="283" y="7" width="130" height="50" as="geometry" />
        </mxCell>
        <mxCell id="wSjBENbRnAiZIrcmz-zM-15" style="edgeStyle=orthogonalEdgeStyle;rounded=0;orthogonalLoop=1;jettySize=auto;html=1;exitX=0.75;exitY=1;exitDx=0;exitDy=0;strokeWidth=3;" parent="1" edge="1">
          <mxGeometry relative="1" as="geometry">
            <mxPoint x="462" y="84" as="targetPoint" />
            <mxPoint x="462.5" y="-12" as="sourcePoint" />
          </mxGeometry>
        </mxCell>
        <mxCell id="wSjBENbRnAiZIrcmz-zM-16" value="&lt;font face=&quot;Times New Roman&quot;&gt;&lt;span style=&quot;font-size: 15px;&quot;&gt;Payment Confirmation&lt;/span&gt;&lt;/font&gt;&lt;div&gt;&lt;font face=&quot;Times New Roman&quot;&gt;&lt;span style=&quot;font-size: 15px;&quot;&gt;&amp;nbsp;Data&lt;/span&gt;&lt;/font&gt;&lt;/div&gt;" style="text;html=1;align=center;verticalAlign=middle;resizable=0;points=[];autosize=1;strokeColor=none;fillColor=none;strokeWidth=1;" parent="1" vertex="1">
          <mxGeometry x="457" y="7" width="160" height="50" as="geometry" />
        </mxCell>
        <mxCell id="wSjBENbRnAiZIrcmz-zM-17" style="edgeStyle=orthogonalEdgeStyle;rounded=0;orthogonalLoop=1;jettySize=auto;html=1;exitX=0.25;exitY=1;exitDx=0;exitDy=0;entryX=0.196;entryY=-0.02;entryDx=0;entryDy=0;entryPerimeter=0;strokeWidth=3;" parent="1" edge="1">
          <mxGeometry relative="1" as="geometry">
            <mxPoint x="412.5" y="194" as="sourcePoint" />
            <mxPoint x="412.24" y="292.0000000000002" as="targetPoint" />
          </mxGeometry>
        </mxCell>
        <mxCell id="wSjBENbRnAiZIrcmz-zM-18" value="&lt;font face=&quot;Times New Roman&quot;&gt;&lt;span style=&quot;font-size: 15px;&quot;&gt;Payment&amp;nbsp;&lt;/span&gt;&lt;/font&gt;&lt;div&gt;&lt;font face=&quot;Times New Roman&quot;&gt;&lt;span style=&quot;font-size: 15px;&quot;&gt;Transaction Record&lt;/span&gt;&lt;/font&gt;&lt;/div&gt;" style="text;html=1;align=center;verticalAlign=middle;resizable=0;points=[];autosize=1;strokeColor=none;fillColor=none;strokeWidth=1;" parent="1" vertex="1">
          <mxGeometry x="281" y="218" width="140" height="50" as="geometry" />
        </mxCell>
        <mxCell id="wSjBENbRnAiZIrcmz-zM-19" style="edgeStyle=orthogonalEdgeStyle;rounded=0;orthogonalLoop=1;jettySize=auto;html=1;exitX=0.75;exitY=0;exitDx=0;exitDy=0;entryX=0.804;entryY=1.025;entryDx=0;entryDy=0;entryPerimeter=0;strokeWidth=3;" parent="1" edge="1">
          <mxGeometry relative="1" as="geometry">
            <mxPoint x="454.5" y="293" as="sourcePoint" />
            <mxPoint x="454.76" y="196.75" as="targetPoint" />
          </mxGeometry>
        </mxCell>
        <mxCell id="wSjBENbRnAiZIrcmz-zM-20" value="&lt;font face=&quot;Times New Roman&quot;&gt;&lt;span style=&quot;font-size: 15px;&quot;&gt;Payment History&lt;/span&gt;&lt;/font&gt;" style="text;html=1;align=center;verticalAlign=middle;resizable=0;points=[];autosize=1;strokeColor=none;fillColor=none;strokeWidth=1;" parent="1" vertex="1">
          <mxGeometry x="459" y="228" width="120" height="30" as="geometry" />
        </mxCell>
        <mxCell id="-xaVbBLuyxIPGjDOa8sy-1" style="edgeStyle=orthogonalEdgeStyle;rounded=0;orthogonalLoop=1;jettySize=auto;html=1;exitX=1;exitY=0.75;exitDx=0;exitDy=0;entryX=1;entryY=0.25;entryDx=0;entryDy=0;strokeWidth=3;" parent="1" source="tX5nesSdGELkdMT0WbA1-1" target="S0NYgSveu-UEB4fADILz-2" edge="1">
          <mxGeometry relative="1" as="geometry">
            <Array as="points">
              <mxPoint x="1190" y="-224" />
              <mxPoint x="1190" y="91" />
            </Array>
          </mxGeometry>
        </mxCell>
        <mxCell id="1XIgVCe82ghRL6gK6Jzj-1" value="&lt;font face=&quot;Times New Roman&quot; style=&quot;forced-color-adjust: none; color: rgb(0, 0, 0); font-size: 12px; font-style: normal; font-variant-ligatures: normal; font-variant-caps: normal; font-weight: 400; letter-spacing: normal; orphans: 2; text-align: center; text-indent: 0px; text-transform: none; widows: 2; word-spacing: 0px; -webkit-text-stroke-width: 0px; white-space: nowrap; background-color: rgb(255, 255, 255); text-decoration-thickness: initial; text-decoration-style: initial; text-decoration-color: initial;&quot;&gt;&lt;span style=&quot;forced-color-adjust: none; font-size: 15px;&quot;&gt;Administrative Commands/&lt;/span&gt;&lt;/font&gt;&lt;div style=&quot;forced-color-adjust: none; color: rgb(0, 0, 0); font-family: Helvetica; font-size: 12px; font-style: normal; font-variant-ligatures: normal; font-variant-caps: normal; font-weight: 400; letter-spacing: normal; orphans: 2; text-align: center; text-indent: 0px; text-transform: none; widows: 2; word-spacing: 0px; -webkit-text-stroke-width: 0px; white-space: nowrap; background-color: rgb(255, 255, 255); text-decoration-thickness: initial; text-decoration-style: initial; text-decoration-color: initial;&quot;&gt;&lt;font face=&quot;Times New Roman&quot; style=&quot;forced-color-adjust: none;&quot;&gt;&lt;span style=&quot;forced-color-adjust: none; font-size: 15px;&quot;&gt;Approval Data&lt;/span&gt;&lt;/font&gt;&lt;/div&gt;" style="text;whiteSpace=wrap;html=1;" parent="1" vertex="1">
          <mxGeometry x="930" y="-227" width="200" height="60" as="geometry" />
        </mxCell>
        <mxCell id="1XIgVCe82ghRL6gK6Jzj-2" style="edgeStyle=orthogonalEdgeStyle;rounded=0;orthogonalLoop=1;jettySize=auto;html=1;exitX=1;exitY=0.75;exitDx=0;exitDy=0;entryX=1;entryY=0.25;entryDx=0;entryDy=0;strokeWidth=3;" parent="1" source="S0NYgSveu-UEB4fADILz-2" target="tX5nesSdGELkdMT0WbA1-1" edge="1">
          <mxGeometry relative="1" as="geometry">
            <mxPoint x="1290" y="-157" as="targetPoint" />
            <Array as="points">
              <mxPoint x="1230" y="146" />
              <mxPoint x="1230" y="-279" />
            </Array>
          </mxGeometry>
        </mxCell>
        <mxCell id="1XIgVCe82ghRL6gK6Jzj-3" value="&lt;div style=&quot;text-align: center;&quot;&gt;&lt;font face=&quot;Times New Roman&quot;&gt;&lt;span style=&quot;font-size: 15px; text-wrap-mode: nowrap;&quot;&gt;System Reports/Vehicle Info for Approval&lt;/span&gt;&lt;/font&gt;&lt;/div&gt;" style="text;whiteSpace=wrap;html=1;" parent="1" vertex="1">
          <mxGeometry x="881" y="-312" width="200" height="60" as="geometry" />
        </mxCell>
        <mxCell id="QIg4oOb2k0vcxIdVO4GF-1" style="edgeStyle=orthogonalEdgeStyle;rounded=0;orthogonalLoop=1;jettySize=auto;html=1;exitX=0.75;exitY=0;exitDx=0;exitDy=0;entryX=0.854;entryY=1.001;entryDx=0;entryDy=0;entryPerimeter=0;strokeWidth=3;" parent="1" edge="1">
          <mxGeometry relative="1" as="geometry">
            <mxPoint x="1076.5" y="63" as="sourcePoint" />
            <mxPoint x="1076.2600000000002" y="-59.8900000000001" as="targetPoint" />
          </mxGeometry>
        </mxCell>
        <mxCell id="QIg4oOb2k0vcxIdVO4GF-2" value="&lt;font face=&quot;Times New Roman&quot;&gt;&lt;span style=&quot;font-size: 15px;&quot;&gt;Listing&amp;nbsp;&lt;/span&gt;&lt;/font&gt;&lt;div&gt;&lt;font face=&quot;Times New Roman&quot;&gt;&lt;span style=&quot;font-size: 15px;&quot;&gt;Confirmation&lt;/span&gt;&lt;/font&gt;&lt;/div&gt;" style="text;html=1;align=center;verticalAlign=middle;resizable=0;points=[];autosize=1;strokeColor=none;fillColor=none;strokeWidth=1;" parent="1" vertex="1">
          <mxGeometry x="1073" y="-14" width="100" height="50" as="geometry" />
        </mxCell>
        <mxCell id="QIg4oOb2k0vcxIdVO4GF-4" style="edgeStyle=orthogonalEdgeStyle;rounded=0;orthogonalLoop=1;jettySize=auto;html=1;exitX=0.75;exitY=0;exitDx=0;exitDy=0;entryX=0.75;entryY=1;entryDx=0;entryDy=0;strokeWidth=3;" parent="1" edge="1">
          <mxGeometry relative="1" as="geometry">
            <mxPoint x="1078.5" y="293" as="sourcePoint" />
            <mxPoint x="1078.5" y="173" as="targetPoint" />
          </mxGeometry>
        </mxCell>
        <mxCell id="QIg4oOb2k0vcxIdVO4GF-5" value="&lt;font face=&quot;Times New Roman&quot;&gt;&lt;span style=&quot;font-size: 15px;&quot;&gt;Vehicle&lt;/span&gt;&lt;/font&gt;&lt;div&gt;&lt;font face=&quot;Times New Roman&quot;&gt;&lt;span style=&quot;font-size: 15px;&quot;&gt;Registration&lt;/span&gt;&lt;/font&gt;&lt;/div&gt;&lt;div&gt;&lt;font face=&quot;Times New Roman&quot;&gt;&lt;span style=&quot;font-size: 15px;&quot;&gt;Data&lt;/span&gt;&lt;/font&gt;&lt;/div&gt;" style="text;html=1;align=center;verticalAlign=middle;resizable=0;points=[];autosize=1;strokeColor=none;fillColor=none;strokeWidth=1;" parent="1" vertex="1">
          <mxGeometry x="1071" y="210" width="100" height="70" as="geometry" />
        </mxCell>
        <mxCell id="QIg4oOb2k0vcxIdVO4GF-7" value="&lt;font face=&quot;Times New Roman&quot;&gt;&lt;span style=&quot;font-size: 15px;&quot;&gt;Payment&amp;nbsp;&lt;/span&gt;&lt;/font&gt;&lt;div&gt;&lt;font face=&quot;Times New Roman&quot;&gt;&lt;span style=&quot;font-size: 15px;&quot;&gt;Request&lt;/span&gt;&lt;/font&gt;&lt;/div&gt;" style="text;html=1;align=center;verticalAlign=middle;resizable=0;points=[];autosize=1;strokeColor=none;fillColor=none;strokeWidth=1;" parent="1" vertex="1">
          <mxGeometry x="264" y="380" width="80" height="50" as="geometry" />
        </mxCell>
        <mxCell id="QIg4oOb2k0vcxIdVO4GF-10" style="edgeStyle=orthogonalEdgeStyle;rounded=0;orthogonalLoop=1;jettySize=auto;html=1;exitX=0;exitY=0.5;exitDx=0;exitDy=0;strokeWidth=3;entryX=0;entryY=0.5;entryDx=0;entryDy=0;" parent="1" source="S0NYgSveu-UEB4fADILz-12" target="S0NYgSveu-UEB4fADILz-7" edge="1">
          <mxGeometry relative="1" as="geometry">
            <mxPoint x="341.6999999999998" y="116.52000000000021" as="sourcePoint" />
            <mxPoint x="160" y="538" as="targetPoint" />
            <Array as="points">
              <mxPoint x="230" y="140" />
              <mxPoint x="230" y="538" />
            </Array>
          </mxGeometry>
        </mxCell>
        <mxCell id="QIg4oOb2k0vcxIdVO4GF-11" value="&lt;font face=&quot;Times New Roman&quot;&gt;&lt;span style=&quot;font-size: 15px;&quot;&gt;Payment&amp;nbsp;&lt;/span&gt;&lt;/font&gt;&lt;div&gt;&lt;font face=&quot;Times New Roman&quot;&gt;&lt;span style=&quot;font-size: 15px;&quot;&gt;Confrimation/&lt;/span&gt;&lt;/font&gt;&lt;/div&gt;&lt;div&gt;&lt;font face=&quot;Times New Roman&quot;&gt;&lt;span style=&quot;font-size: 15px;&quot;&gt;Payment&amp;nbsp;&lt;/span&gt;&lt;/font&gt;&lt;/div&gt;&lt;div&gt;&lt;font face=&quot;Times New Roman&quot;&gt;&lt;span style=&quot;font-size: 15px;&quot;&gt;Information&lt;/span&gt;&lt;/font&gt;&lt;/div&gt;" style="text;html=1;align=center;verticalAlign=middle;resizable=0;points=[];autosize=1;strokeColor=none;fillColor=none;strokeWidth=1;" parent="1" vertex="1">
          <mxGeometry x="125" y="260" width="110" height="90" as="geometry" />
        </mxCell>
        <mxCell id="QIg4oOb2k0vcxIdVO4GF-12" style="edgeStyle=orthogonalEdgeStyle;rounded=0;orthogonalLoop=1;jettySize=auto;html=1;strokeWidth=3;exitX=0.25;exitY=0;exitDx=0;exitDy=0;entryX=0;entryY=0.75;entryDx=0;entryDy=0;" parent="1" target="S0NYgSveu-UEB4fADILz-12" edge="1">
          <mxGeometry relative="1" as="geometry">
            <mxPoint x="330" y="167" as="targetPoint" />
            <mxPoint x="266.5" y="483" as="sourcePoint" />
            <Array as="points">
              <mxPoint x="267" y="167" />
            </Array>
          </mxGeometry>
        </mxCell>
        <mxCell id="qxJocRSWX0UaIm97FC_p-1" value="" style="group" parent="1" vertex="1" connectable="0">
          <mxGeometry x="622" y="692" width="190" height="110" as="geometry" />
        </mxCell>
        <mxCell id="qxJocRSWX0UaIm97FC_p-2" value="" style="rounded=1;whiteSpace=wrap;html=3;strokeColor=light-dark(#000000,#FFFFFF);strokeWidth=3;" parent="qxJocRSWX0UaIm97FC_p-1" vertex="1">
          <mxGeometry width="190" height="110" as="geometry" />
        </mxCell>
        <mxCell id="qxJocRSWX0UaIm97FC_p-3" value="" style="endArrow=none;html=1;rounded=0;entryX=1;entryY=0.25;entryDx=0;entryDy=0;exitX=0;exitY=0.25;exitDx=0;exitDy=0;strokeWidth=3;" parent="qxJocRSWX0UaIm97FC_p-1" edge="1">
          <mxGeometry width="50" height="50" relative="1" as="geometry">
            <mxPoint y="39.5" as="sourcePoint" />
            <mxPoint x="190" y="39.5" as="targetPoint" />
          </mxGeometry>
        </mxCell>
        <mxCell id="qxJocRSWX0UaIm97FC_p-4" value="&lt;font style=&quot;font-size: 18px;&quot;&gt;1.5&lt;/font&gt;" style="text;html=1;align=center;verticalAlign=middle;resizable=0;points=[];autosize=1;strokeColor=none;fillColor=none;" parent="qxJocRSWX0UaIm97FC_p-1" vertex="1">
          <mxGeometry x="-6" y="2" width="50" height="40" as="geometry" />
        </mxCell>
        <mxCell id="qxJocRSWX0UaIm97FC_p-5" value="&lt;font style=&quot;font-size: 18px;&quot;&gt;Manage Reviews&lt;/font&gt;" style="text;html=1;align=center;verticalAlign=middle;resizable=0;points=[];autosize=1;strokeColor=none;fillColor=none;" parent="qxJocRSWX0UaIm97FC_p-1" vertex="1">
          <mxGeometry x="9" y="50" width="160" height="40" as="geometry" />
        </mxCell>
        <mxCell id="qxJocRSWX0UaIm97FC_p-6" value="" style="group" parent="1" vertex="1" connectable="0">
          <mxGeometry x="623" y="950" width="270" height="110" as="geometry" />
        </mxCell>
        <mxCell id="qxJocRSWX0UaIm97FC_p-7" value="" style="html=1;dashed=0;whiteSpace=wrap;shape=partialRectangle;right=0;strokeWidth=3;" parent="qxJocRSWX0UaIm97FC_p-6" vertex="1">
          <mxGeometry x="-1" y="-49" width="190" height="50" as="geometry" />
        </mxCell>
        <mxCell id="qxJocRSWX0UaIm97FC_p-8" value="&lt;font style=&quot;font-size: 18px;&quot;&gt;D5 – Review Data&lt;/font&gt;" style="text;html=1;align=center;verticalAlign=middle;resizable=0;points=[];autosize=1;strokeColor=none;fillColor=none;container=1;" parent="qxJocRSWX0UaIm97FC_p-6" vertex="1">
          <mxGeometry x="-2" y="-44" width="170" height="40" as="geometry" />
        </mxCell>
        <mxCell id="qxJocRSWX0UaIm97FC_p-9" style="edgeStyle=orthogonalEdgeStyle;rounded=0;orthogonalLoop=1;jettySize=auto;html=1;exitX=0;exitY=0.75;exitDx=0;exitDy=0;entryX=0.75;entryY=0;entryDx=0;entryDy=0;strokeWidth=3;" parent="1" source="tX5nesSdGELkdMT0WbA1-3" target="CzCq_uoydx_rgcWmHXnd-2" edge="1">
          <mxGeometry relative="1" as="geometry">
            <Array as="points">
              <mxPoint x="780" y="-87" />
              <mxPoint x="780" y="400" />
              <mxPoint x="1148" y="400" />
            </Array>
          </mxGeometry>
        </mxCell>
        <mxCell id="qxJocRSWX0UaIm97FC_p-10" value="&lt;font face=&quot;Times New Roman&quot;&gt;&lt;span style=&quot;font-size: 15px;&quot;&gt;Registration Data/ Login Data&lt;/span&gt;&lt;/font&gt;" style="text;html=1;align=center;verticalAlign=middle;resizable=0;points=[];autosize=1;strokeColor=none;fillColor=none;strokeWidth=1;" parent="1" vertex="1">
          <mxGeometry x="778" y="370" width="200" height="30" as="geometry" />
        </mxCell>
        <mxCell id="qxJocRSWX0UaIm97FC_p-11" style="edgeStyle=orthogonalEdgeStyle;rounded=0;orthogonalLoop=1;jettySize=auto;html=1;entryX=0.446;entryY=0.009;entryDx=0;entryDy=0;entryPerimeter=0;strokeWidth=3;exitX=0;exitY=0.5;exitDx=0;exitDy=0;" parent="1" edge="1" source="tX5nesSdGELkdMT0WbA1-3">
          <mxGeometry relative="1" as="geometry">
            <Array as="points">
              <mxPoint x="940" y="-110" />
              <mxPoint x="740" y="-110" />
              <mxPoint x="740" y="451" />
              <mxPoint x="1090" y="451" />
            </Array>
            <mxPoint x="850" y="-130" as="sourcePoint" />
            <mxPoint x="1089.7400000000002" y="480.99000000000024" as="targetPoint" />
          </mxGeometry>
        </mxCell>
        <mxCell id="qxJocRSWX0UaIm97FC_p-12" value="&lt;font face=&quot;Times New Roman&quot;&gt;&lt;span style=&quot;font-size: 15px;&quot;&gt;Registration Confirmation/User Profile Data&lt;/span&gt;&lt;/font&gt;" style="text;html=1;align=center;verticalAlign=middle;resizable=0;points=[];autosize=1;strokeColor=none;fillColor=none;strokeWidth=1;" parent="1" vertex="1">
          <mxGeometry x="743" y="424" width="290" height="30" as="geometry" />
        </mxCell>
        <mxCell id="qxJocRSWX0UaIm97FC_p-15" style="edgeStyle=orthogonalEdgeStyle;rounded=0;orthogonalLoop=1;jettySize=auto;html=1;exitX=0;exitY=0.75;exitDx=0;exitDy=0;entryX=0.981;entryY=0.652;entryDx=0;entryDy=0;entryPerimeter=0;strokeWidth=3;" parent="1" source="CzCq_uoydx_rgcWmHXnd-2" target="tX5nesSdGELkdMT0WbA1-6" edge="1">
          <mxGeometry relative="1" as="geometry" />
        </mxCell>
        <mxCell id="qxJocRSWX0UaIm97FC_p-16" value="&lt;font face=&quot;Times New Roman&quot;&gt;&lt;span style=&quot;font-size: 15px;&quot;&gt;Login Confirmation&lt;/span&gt;&lt;/font&gt;" style="text;html=1;align=center;verticalAlign=middle;resizable=0;points=[];autosize=1;strokeColor=none;fillColor=none;strokeWidth=1;" parent="1" vertex="1">
          <mxGeometry x="855" y="561" width="140" height="30" as="geometry" />
        </mxCell>
        <mxCell id="qxJocRSWX0UaIm97FC_p-17" style="edgeStyle=orthogonalEdgeStyle;rounded=0;orthogonalLoop=1;jettySize=auto;html=1;exitX=0.75;exitY=0;exitDx=0;exitDy=0;entryX=1;entryY=0.25;entryDx=0;entryDy=0;strokeWidth=3;" parent="1" source="tX5nesSdGELkdMT0WbA1-1" target="CzCq_uoydx_rgcWmHXnd-2" edge="1">
          <mxGeometry relative="1" as="geometry">
            <Array as="points">
              <mxPoint x="816" y="-327" />
              <mxPoint x="1270" y="-327" />
              <mxPoint x="1270" y="507" />
            </Array>
          </mxGeometry>
        </mxCell>
        <mxCell id="qxJocRSWX0UaIm97FC_p-18" value="&lt;div style=&quot;text-align: center;&quot;&gt;&lt;font face=&quot;Times New Roman&quot;&gt;&lt;span style=&quot;font-size: 15px; text-wrap-mode: nowrap;&quot;&gt;Admin Commands (Create new admins)&lt;/span&gt;&lt;/font&gt;&lt;/div&gt;" style="text;whiteSpace=wrap;html=1;" parent="1" vertex="1">
          <mxGeometry x="855" y="-367" width="200" height="60" as="geometry" />
        </mxCell>
        <mxCell id="qxJocRSWX0UaIm97FC_p-19" style="edgeStyle=orthogonalEdgeStyle;rounded=0;orthogonalLoop=1;jettySize=auto;html=1;exitX=1;exitY=0.75;exitDx=0;exitDy=0;entryX=0.25;entryY=0;entryDx=0;entryDy=0;strokeWidth=3;" parent="1" source="CzCq_uoydx_rgcWmHXnd-2" target="tX5nesSdGELkdMT0WbA1-1" edge="1">
          <mxGeometry relative="1" as="geometry">
            <Array as="points">
              <mxPoint x="1300" y="562" />
              <mxPoint x="1300" y="-380" />
              <mxPoint x="721" y="-380" />
            </Array>
          </mxGeometry>
        </mxCell>
        <mxCell id="qxJocRSWX0UaIm97FC_p-20" value="&lt;div style=&quot;text-align: center;&quot;&gt;&lt;font face=&quot;Times New Roman&quot;&gt;&lt;span style=&quot;font-size: 15px; text-wrap-mode: nowrap;&quot;&gt;User List / Reports / admin creation confirmation&lt;/span&gt;&lt;/font&gt;&lt;/div&gt;" style="text;whiteSpace=wrap;html=1;" parent="1" vertex="1">
          <mxGeometry x="805" y="-417" width="200" height="60" as="geometry" />
        </mxCell>
        <mxCell id="qxJocRSWX0UaIm97FC_p-22" style="edgeStyle=orthogonalEdgeStyle;rounded=0;orthogonalLoop=1;jettySize=auto;html=1;exitX=0.5;exitY=0;exitDx=0;exitDy=0;entryX=0.011;entryY=0.145;entryDx=0;entryDy=0;strokeWidth=3;entryPerimeter=0;" parent="1" source="S0NYgSveu-UEB4fADILz-7" target="tX5nesSdGELkdMT0WbA1-3" edge="1">
          <mxGeometry relative="1" as="geometry">
            <Array as="points">
              <mxPoint x="340" y="483" />
              <mxPoint x="340" y="420" />
              <mxPoint x="670" y="420" />
              <mxPoint x="670" y="-154" />
            </Array>
          </mxGeometry>
        </mxCell>
        <mxCell id="qxJocRSWX0UaIm97FC_p-23" value="&lt;font face=&quot;Times New Roman&quot;&gt;&lt;span style=&quot;font-size: 15px;&quot;&gt;Booking Information&lt;/span&gt;&lt;/font&gt;" style="text;html=1;align=center;verticalAlign=middle;resizable=0;points=[];autosize=1;strokeColor=none;fillColor=none;strokeWidth=1;" parent="1" vertex="1">
          <mxGeometry x="666" y="-182" width="150" height="30" as="geometry" />
        </mxCell>
        <mxCell id="qxJocRSWX0UaIm97FC_p-28" style="edgeStyle=orthogonalEdgeStyle;rounded=0;orthogonalLoop=1;jettySize=auto;html=1;exitX=0.25;exitY=1;exitDx=0;exitDy=0;strokeWidth=3;" parent="1" edge="1">
          <mxGeometry relative="1" as="geometry">
            <mxPoint x="686.5" y="601" as="sourcePoint" />
            <mxPoint x="686" y="690" as="targetPoint" />
          </mxGeometry>
        </mxCell>
        <mxCell id="qxJocRSWX0UaIm97FC_p-29" value="&lt;font face=&quot;Times New Roman&quot;&gt;&lt;span style=&quot;font-size: 15px;&quot;&gt;Review Data&lt;/span&gt;&lt;/font&gt;" style="text;html=1;align=center;verticalAlign=middle;resizable=0;points=[];autosize=1;strokeColor=none;fillColor=none;strokeWidth=1;" parent="1" vertex="1">
          <mxGeometry x="591" y="639" width="100" height="30" as="geometry" />
        </mxCell>
        <mxCell id="qxJocRSWX0UaIm97FC_p-30" style="edgeStyle=orthogonalEdgeStyle;rounded=0;orthogonalLoop=1;jettySize=auto;html=1;exitX=0.75;exitY=0;exitDx=0;exitDy=0;entryX=0.705;entryY=1.004;entryDx=0;entryDy=0;entryPerimeter=0;strokeWidth=3;" parent="1" source="qxJocRSWX0UaIm97FC_p-2" target="tX5nesSdGELkdMT0WbA1-6" edge="1">
          <mxGeometry relative="1" as="geometry">
            <mxPoint x="748.5" y="730" as="sourcePoint" />
            <mxPoint x="747.95" y="600.44" as="targetPoint" />
          </mxGeometry>
        </mxCell>
        <mxCell id="qxJocRSWX0UaIm97FC_p-31" value="&lt;font face=&quot;Times New Roman&quot;&gt;&lt;span style=&quot;font-size: 15px;&quot;&gt;Review Confirmation/&lt;/span&gt;&lt;/font&gt;&lt;div&gt;&lt;font face=&quot;Times New Roman&quot;&gt;&lt;span style=&quot;font-size: 15px;&quot;&gt;Review Data&lt;/span&gt;&lt;/font&gt;&lt;/div&gt;" style="text;html=1;align=center;verticalAlign=middle;resizable=0;points=[];autosize=1;strokeColor=none;fillColor=none;strokeWidth=1;" parent="1" vertex="1">
          <mxGeometry x="757" y="631" width="160" height="50" as="geometry" />
        </mxCell>
        <mxCell id="qxJocRSWX0UaIm97FC_p-32" style="edgeStyle=orthogonalEdgeStyle;rounded=0;orthogonalLoop=1;jettySize=auto;html=1;exitX=0;exitY=0.25;exitDx=0;exitDy=0;entryX=0;entryY=0.5;entryDx=0;entryDy=0;strokeWidth=3;" parent="1" source="S0NYgSveu-UEB4fADILz-12" target="tX5nesSdGELkdMT0WbA1-1" edge="1">
          <mxGeometry relative="1" as="geometry">
            <mxPoint x="140" y="-240" as="targetPoint" />
            <Array as="points">
              <mxPoint x="260" y="112" />
              <mxPoint x="260" y="-252" />
            </Array>
          </mxGeometry>
        </mxCell>
        <mxCell id="qxJocRSWX0UaIm97FC_p-33" value="&lt;font face=&quot;Times New Roman&quot;&gt;&lt;span style=&quot;font-size: 15px;&quot;&gt;Payment Reports&lt;/span&gt;&lt;/font&gt;" style="text;html=1;align=center;verticalAlign=middle;resizable=0;points=[];autosize=1;strokeColor=none;fillColor=none;strokeWidth=1;" parent="1" vertex="1">
          <mxGeometry x="285" y="-282" width="130" height="30" as="geometry" />
        </mxCell>
        <mxCell id="qxJocRSWX0UaIm97FC_p-35" style="edgeStyle=orthogonalEdgeStyle;rounded=0;orthogonalLoop=1;jettySize=auto;html=1;exitX=0.25;exitY=1;exitDx=0;exitDy=0;entryX=0.25;entryY=0;entryDx=0;entryDy=0;strokeWidth=3;" parent="1" source="qxJocRSWX0UaIm97FC_p-2" target="qxJocRSWX0UaIm97FC_p-7" edge="1">
          <mxGeometry relative="1" as="geometry" />
        </mxCell>
        <mxCell id="qxJocRSWX0UaIm97FC_p-36" value="&lt;font face=&quot;Times New Roman&quot;&gt;&lt;span style=&quot;font-size: 15px;&quot;&gt;New/Updated&amp;nbsp;&lt;/span&gt;&lt;/font&gt;&lt;div&gt;&lt;font face=&quot;Times New Roman&quot;&gt;&lt;span style=&quot;font-size: 15px;&quot;&gt;Review&lt;/span&gt;&lt;/font&gt;&lt;/div&gt;" style="text;html=1;align=center;verticalAlign=middle;resizable=0;points=[];autosize=1;strokeColor=none;fillColor=none;strokeWidth=1;" parent="1" vertex="1">
          <mxGeometry x="570" y="823" width="110" height="50" as="geometry" />
        </mxCell>
        <mxCell id="qxJocRSWX0UaIm97FC_p-37" style="edgeStyle=orthogonalEdgeStyle;rounded=0;orthogonalLoop=1;jettySize=auto;html=1;exitX=0.5;exitY=0;exitDx=0;exitDy=0;entryX=0.5;entryY=1;entryDx=0;entryDy=0;strokeWidth=3;" parent="1" source="qxJocRSWX0UaIm97FC_p-7" target="qxJocRSWX0UaIm97FC_p-2" edge="1">
          <mxGeometry relative="1" as="geometry" />
        </mxCell>
        <mxCell id="qxJocRSWX0UaIm97FC_p-38" value="&lt;font face=&quot;Times New Roman&quot;&gt;&lt;span style=&quot;font-size: 15px;&quot;&gt;Reviews Details&lt;/span&gt;&lt;/font&gt;" style="text;html=1;align=center;verticalAlign=middle;resizable=0;points=[];autosize=1;strokeColor=none;fillColor=none;strokeWidth=1;" parent="1" vertex="1">
          <mxGeometry x="711" y="831" width="120" height="30" as="geometry" />
        </mxCell>
        <mxCell id="gUwTlwFzzK45jmicInPx-1" style="edgeStyle=orthogonalEdgeStyle;rounded=0;orthogonalLoop=1;jettySize=auto;html=1;exitX=0;exitY=0.364;exitDx=0;exitDy=0;entryX=0.75;entryY=0;entryDx=0;entryDy=0;exitPerimeter=0;strokeWidth=3;" edge="1" parent="1" source="tX5nesSdGELkdMT0WbA1-3" target="S0NYgSveu-UEB4fADILz-7">
          <mxGeometry relative="1" as="geometry">
            <Array as="points">
              <mxPoint x="710" y="-130" />
              <mxPoint x="710" y="450" />
              <mxPoint x="392" y="450" />
            </Array>
          </mxGeometry>
        </mxCell>
        <mxCell id="gUwTlwFzzK45jmicInPx-2" value="&lt;font face=&quot;Times New Roman&quot;&gt;&lt;span style=&quot;font-size: 15px;&quot;&gt;Vehicle Availability Data&lt;/span&gt;&lt;/font&gt;" style="text;html=1;align=center;verticalAlign=middle;resizable=0;points=[];autosize=1;strokeColor=none;fillColor=none;strokeWidth=1;" vertex="1" parent="1">
          <mxGeometry x="761" y="-156" width="170" height="30" as="geometry" />
        </mxCell>
      </root>
    </mxGraphModel>
  </diagram>
  <diagram name="Level 1" id="xdmWevAs4RQMLWHN5d6T">
    <mxGraphModel dx="880" dy="516" grid="1" gridSize="10" guides="1" tooltips="1" connect="1" arrows="1" fold="1" page="0" pageScale="1" pageWidth="900" pageHeight="1600" math="0" shadow="0">
      <root>
        <mxCell id="0" />
        <mxCell id="1" parent="0" />
      </root>
    </mxGraphModel>
  </diagram>
</mxfile>
